<svg xmlns="http://www.w3.org/2000/svg" width="920" height="620" viewBox="0 0 920 620" role="img" aria-labelledby="title desc">
  <title id="title">INI Brain يصل المشروع بوكلاء الذكاء الاصطناعي</title>
  <desc id="desc">رسم يوضح مجلد المشروع في الوسط واتصاله بكوديكس وكلود وكلين وفجوال ستوديو كود</desc>
  <defs>
    <linearGradient id="bg" x1="0" y1="0" x2="1" y2="1"><stop stop-color="#131a2b"/><stop offset="1" stop-color="#27385c"/></linearGradient>
    <linearGradient id="brain" x1="0" y1="0" x2="1" y2="1"><stop stop-color="#6d5dfc"/><stop offset="1" stop-color="#20b8c8"/></linearGradient>
    <filter id="shadow"><feDropShadow dx="0" dy="16" stdDeviation="18" flood-opacity=".24"/></filter>
  </defs>
  <rect width="920" height="620" rx="34" fill="url(#bg)"/>
  <g fill="none" stroke="#6ea7d8" stroke-width="3" stroke-dasharray="8 9" opacity=".7">
    <path d="M450 300L196 150"/><path d="M470 300L728 150"/><path d="M450 330L190 475"/><path d="M475 330L735 475"/>
  </g>
  <g filter="url(#shadow)">
    <rect x="315" y="215" width="290" height="205" rx="28" fill="#fff"/>
    <rect x="344" y="246" width="232" height="52" rx="15" fill="url(#brain)"/>
    <text x="460" y="280" text-anchor="middle" fill="#fff" font-family="Segoe UI,Arial" font-size="25" font-weight="800">INI BRAIN</text>
    <g fill="#e9edff"><rect x="350" y="324" width="210" height="13" rx="6"/><rect x="350" y="351" width="170" height="13" rx="6"/><rect x="350" y="378" width="195" height="13" rx="6"/></g>
  </g>
  <g font-family="Segoe UI,Arial" font-weight="800" font-size="22" text-anchor="middle">
    <g><rect x="80" y="80" width="220" height="120" rx="24" fill="#eef1ff"/><circle cx="190" cy="125" r="23" fill="#5b4cf0"/><text x="190" y="134" fill="#fff">C</text><text x="190" y="174" fill="#242d45">Codex Windows</text></g>
    <g><rect x="620" y="80" width="220" height="120" rx="24" fill="#fff2e9"/><circle cx="730" cy="125" r="23" fill="#d97706"/><text x="730" y="134" fill="#fff">A</text><text x="730" y="174" fill="#242d45">Claude</text></g>
    <g><rect x="80" y="420" width="220" height="120" rx="24" fill="#e9fbf5"/><circle cx="190" cy="465" r="23" fill="#14845f"/><text x="190" y="474" fill="#fff">CL</text><text x="190" y="514" fill="#242d45">Cline</text></g>
    <g><rect x="620" y="420" width="220" height="120" rx="24" fill="#eaf8fc"/><circle cx="730" cy="465" r="23" fill="#148bb5"/><text x="730" y="474" fill="#fff">VS</text><text x="730" y="514" fill="#242d45">VS Code</text></g>
  </g>
  <g font-family="Segoe UI,Arial" font-size="16" fill="#a9c2df" text-anchor="middle"><text x="460" y="56">ذاكرة واحدة • سياق مركز • مهارات عند الطلب</text><text x="460" y="584">لا ترسل مشروعك كاملًا إلى كل وكيل</text></g>
</svg>

