<svg xmlns="http://www.w3.org/2000/svg" width="980" height="690" viewBox="0 0 980 690" role="img" aria-labelledby="title desc">
  <title id="title">لوحة INI Brain داخل VS Code</title>
  <desc id="desc">صورة تعليمية مرقمة لأهم أزرار الإضافة داخل الشريط الجانبي</desc>
  <rect width="980" height="690" rx="26" fill="#111827"/>
  <rect x="20" y="20" width="940" height="48" rx="12" fill="#202938"/>
  <circle cx="48" cy="44" r="8" fill="#ef4444"/><circle cx="74" cy="44" r="8" fill="#f59e0b"/><circle cx="100" cy="44" r="8" fill="#22c55e"/>
  <text x="490" y="51" fill="#cfd7e6" font-family="Segoe UI,Arial" font-size="17" text-anchor="middle">Visual Studio Code — INI Brain AI</text>
  <rect x="20" y="82" width="76" height="588" rx="13" fill="#192231"/>
  <g fill="#8ea0b9"><rect x="42" y="112" width="32" height="32" rx="7"/><rect x="42" y="166" width="32" height="32" rx="7"/><rect x="42" y="220" width="32" height="32" rx="7"/><rect x="42" y="274" width="32" height="32" rx="7" fill="#6d5dfc"/></g>
  <rect x="110" y="82" width="320" height="588" rx="13" fill="#f8fafc"/>
  <text x="136" y="120" fill="#182137" font-family="Segoe UI,Arial" font-weight="800" font-size="23">INI Brain AI</text>
  <rect x="337" y="98" width="72" height="28" rx="14" fill="#dcfce7"/><text x="373" y="118" fill="#15803d" font-family="Segoe UI,Arial" font-size="12" text-anchor="middle">Ready</text>
  <g font-family="Segoe UI,Arial" font-size="14" font-weight="700">
    <g><rect x="132" y="146" width="132" height="42" rx="9" fill="#5b4cf0"/><text x="198" y="173" fill="#fff" text-anchor="middle">Scan Project</text><circle cx="116" cy="167" r="14" fill="#fde047"/><text x="116" y="172" fill="#422006" text-anchor="middle">1</text></g>
    <g><rect x="278" y="146" width="132" height="42" rx="9" fill="#5b4cf0"/><text x="344" y="173" fill="#fff" text-anchor="middle">Smart Setup</text><circle cx="424" cy="167" r="14" fill="#fde047"/><text x="424" y="172" fill="#422006" text-anchor="middle">2</text></g>
    <g><rect x="132" y="200" width="132" height="42" rx="9" fill="#e8ecf4"/><text x="198" y="227" fill="#1f2937" text-anchor="middle">Ask AI</text><circle cx="116" cy="221" r="14" fill="#fde047"/><text x="116" y="226" fill="#422006" text-anchor="middle">3</text></g>
    <g><rect x="278" y="200" width="132" height="42" rx="9" fill="#e8ecf4"/><text x="344" y="227" fill="#1f2937" text-anchor="middle">Auto Mode</text><circle cx="424" cy="221" r="14" fill="#fde047"/><text x="424" y="226" fill="#422006" text-anchor="middle">4</text></g>
    <g><rect x="132" y="254" width="132" height="42" rx="9" fill="#e8ecf4"/><text x="198" y="281" fill="#1f2937" text-anchor="middle">Save Memory</text><circle cx="116" cy="275" r="14" fill="#fde047"/><text x="116" y="280" fill="#422006" text-anchor="middle">5</text></g>
    <g><rect x="278" y="254" width="132" height="42" rx="9" fill="#e8ecf4"/><text x="344" y="281" fill="#1f2937" text-anchor="middle">Install MCP</text><circle cx="424" cy="275" r="14" fill="#fde047"/><text x="424" y="280" fill="#422006" text-anchor="middle">6</text></g>
  </g>
  <g font-family="Segoe UI,Arial">
    <rect x="132" y="320" width="278" height="102" rx="13" fill="#fff" stroke="#d7deea"/><text x="150" y="349" fill="#4237b8" font-size="15" font-weight="800">Token Savings</text><rect x="150" y="367" width="113" height="34" rx="8" fill="#eef1ff"/><text x="206" y="389" fill="#312e81" text-anchor="middle" font-size="12">Enable All</text><rect x="278" y="367" width="113" height="34" rx="8" fill="#eef1ff"/><text x="334" y="389" fill="#312e81" text-anchor="middle" font-size="12">Dashboard</text>
    <rect x="132" y="438" width="278" height="102" rx="13" fill="#fff" stroke="#d7deea"/><text x="150" y="467" fill="#4237b8" font-size="15" font-weight="800">Spec-Driven Dev</text><rect x="150" y="485" width="55" height="34" rx="8" fill="#eef1ff"/><text x="177" y="507" fill="#312e81" text-anchor="middle" font-size="11">Spec</text><rect x="214" y="485" width="55" height="34" rx="8" fill="#eef1ff"/><text x="241" y="507" fill="#312e81" text-anchor="middle" font-size="11">Plan</text><rect x="278" y="485" width="55" height="34" rx="8" fill="#eef1ff"/><text x="305" y="507" fill="#312e81" text-anchor="middle" font-size="11">Tasks</text><rect x="342" y="485" width="55" height="34" rx="8" fill="#eef1ff"/><text x="369" y="507" fill="#312e81" text-anchor="middle" font-size="11">Build</text>
    <rect x="132" y="556" width="278" height="86" rx="13" fill="#fff" stroke="#d7deea"/><text x="150" y="585" fill="#4237b8" font-size="15" font-weight="800">Output Console</text><rect x="150" y="603" width="205" height="10" rx="5" fill="#dfe5ef"/><rect x="150" y="622" width="155" height="10" rx="5" fill="#dfe5ef"/>
  </g>
  <rect x="446" y="82" width="514" height="588" rx="13" fill="#0d1422"/>
  <g font-family="Segoe UI,Arial"><text x="476" y="124" fill="#dbeafe" font-size="22" font-weight="800">الخطة الذكية</text><text x="476" y="159" fill="#91a4c2" font-size="16">المشروع: React + Codex + Claude</text>
    <g font-size="15"><text x="496" y="208" fill="#86efac">✓ أساس التخطيط والعمل</text><text x="496" y="244" fill="#86efac">✓ توفير التوكينات المتوازن</text><text x="496" y="280" fill="#86efac">✓ جودة الواجهة</text><text x="496" y="316" fill="#86efac">✓ العمل مع عدة وكلاء</text><text x="496" y="352" fill="#fcd34d">اختياري: فهم الكود الكبير</text></g>
    <rect x="476" y="390" width="446" height="112" rx="15" fill="#172137"/><text x="496" y="423" fill="#67e8f9" font-size="14" font-weight="800">لا يوجد تنزيل لمستودعات كاملة</text><text x="496" y="455" fill="#b9c7dc" font-size="14">سيتم نسخ الملفات المنتقاة الموجودة داخل الإضافة</text><text x="496" y="481" fill="#b9c7dc" font-size="14">بعد أن تختار الحزم وتضغط Apply</text>
    <rect x="476" y="532" width="164" height="48" rx="10" fill="#5b4cf0"/><text x="558" y="562" fill="#fff" text-anchor="middle" font-size="15" font-weight="800">Choose Packages</text></g>
</svg>

