<svg width="24" height="24" viewBox="0 0 24 24" xmlns="http://www.w3.org/2000/svg" fill="none">
  <path d="M12 3C8.7 3 6 5.7 6 9v2.1C4.8 11.6 4 12.8 4 14.2C4 16 5.4 17.5 7.2 17.5H8c.5 2 2.1 3.5 4 3.5s3.5-1.5 4-3.5h.8c1.8 0 3.2-1.5 3.2-3.3c0-1.4-.8-2.6-2-3.1V9c0-3.3-2.7-6-6-6Z" stroke="currentColor" stroke-width="1.6" stroke-linejoin="round"/>
  <path d="M12 4v17M9 8.5c1 0 1.8.8 1.8 1.8M15 8.5c-1 0-1.8.8-1.8 1.8M9.2 14.5c.9 0 1.7.6 2 1.4M14.8 14.5c-.9 0-1.7.6-2 1.4" stroke="currentColor" stroke-width="1.4" stroke-linecap="round"/>
</svg>
